<mxfile host="app.diagrams.net" agent="Mozilla/5.0 (Windows NT 10.0; Win64; x64) AppleWebKit/537.36 (KHTML, like Gecko) Chrome/136.0.0.0 Safari/537.36" version="27.1.1">
  <diagram name="Page-1" id="91jscVkorQK-JBloRmye">
    <mxGraphModel dx="1097" dy="592" grid="1" gridSize="10" guides="1" tooltips="1" connect="1" arrows="1" fold="1" page="1" pageScale="1" pageWidth="827" pageHeight="1169" math="0" shadow="0">
      <root>
        <mxCell id="0" />
        <mxCell id="1" parent="0" />
        <mxCell id="wind" value="Quạt Gió" style="shape=ellipse;fillColor=#4CAF50;strokeColor=#2E7D32;gradientColor=#81C784;fontColor=#FFFFFF;fontSize=12;" vertex="1" parent="1">
          <mxGeometry y="70" width="110" height="60" as="geometry" />
        </mxCell>
        <mxCell id="solar" value="Pin Mặt Trời" style="shape=ellipse;fillColor=#FFC107;strokeColor=#FF8F00;gradientColor=#FFD54F;fontColor=#212121;fontSize=12;" vertex="1" parent="1">
          <mxGeometry y="130" width="110" height="60" as="geometry" />
        </mxCell>
        <mxCell id="hydro" value="Thủy điện" style="shape=ellipse;fillColor=#03A9F4;strokeColor=#0288D1;gradientColor=#4FC3F7;fontColor=#FFFFFF;fontSize=12;" vertex="1" parent="1">
          <mxGeometry y="190" width="110" height="60" as="geometry" />
        </mxCell>
        <mxCell id="sensor" value="Cảm biến&#xa;Ánh sáng" style="shape=ellipse;fillColor=#FF7043;strokeColor=#E64A19;gradientColor=#FF8A65;fontColor=#FFFFFF;fontSize=12;" vertex="1" parent="1">
          <mxGeometry x="285" y="455" width="90" height="90" as="geometry" />
        </mxCell>
        <mxCell id="esp32" value="ESP8266" style="shape=hexagon;fillColor=#673AB7;strokeColor=#5E35B1;gradientColor=#9575CD;fontColor=#FFFFFF;fontSize=12;" vertex="1" parent="1">
          <mxGeometry x="275" y="325" width="110" height="90" as="geometry" />
        </mxCell>
        <mxCell id="led_solar" value="LED Mặt Trời" style="shape=ellipse;fillColor=#FFF9C4;strokeColor=#FFEE58;gradientColor=#FFFDE7;fontColor=#212121;fontSize=12;" vertex="1" parent="1">
          <mxGeometry x="630" y="470" width="80" height="60" as="geometry" />
        </mxCell>
        <mxCell id="led_city" value="Ánh sáng&#xa;Thành Phố" style="shape=ellipse;fillColor=#E1F5FE;strokeColor=#4FC3F7;gradientColor=#B3E5FC;fontColor=#212121;fontSize=12;" vertex="1" parent="1">
          <mxGeometry y="340" width="80" height="60" as="geometry" />
        </mxCell>
        <mxCell id="firebase" value="CSDL&#xa;Firebase" style="shape=cloud;fillColor=#FFA000;strokeColor=#FF6F00;gradientColor=#FFC107;fontColor=#FFFFFF;fontSize=12;" vertex="1" parent="1">
          <mxGeometry x="270" y="140" width="120" height="80" as="geometry" />
        </mxCell>
        <mxCell id="web" value="Giao diện Web" style="shape=rectangle;rounded=1;fillColor=#E1F5FE;strokeColor=#4FC3F7;gradientColor=#B3E5FC;fontColor=#0277BD;fontSize=14;" vertex="1" parent="1">
          <mxGeometry x="600" y="145" width="140" height="70" as="geometry" />
        </mxCell>
        <mxCell id="day_night" value="Điều khiển ngày đêm" style="shape=rectangle;rounded=1;fillColor=#9E9E9E;strokeColor=#616161;gradientColor=#B0BEC5;fontColor=#FFFFFF;fontSize=12;" vertex="1" parent="1">
          <mxGeometry x="610" y="340" width="120" height="60" as="geometry" />
        </mxCell>
        <mxCell id="conn_city_firebase" value="Năng lượng&lt;br&gt;tiêu thụ" style="edgeStyle=none;endArrow=classic;html=1;strokeWidth=2;strokeColor=#2A5CAA;fontSize=10;fontColor=#2A5CAA;exitX=0.5;exitY=1;exitDx=0;exitDy=0;exitPerimeter=0;" edge="1" parent="1" source="nG6pSHDmTLSfgID_-Cg2-3" target="firebase">
          <mxGeometry relative="1" as="geometry">
            <mxPoint x="330" y="70" as="sourcePoint" />
            <mxPoint x="450" y="280" as="targetPoint" />
          </mxGeometry>
        </mxCell>
        <mxCell id="conn_wind_firebase" value="Năng lượng gió" style="edgeStyle=none;endArrow=classic;html=1;strokeWidth=2;strokeColor=#4CAF50;fontSize=10;fontColor=#4CAF50;" edge="1" parent="1" source="wind" target="firebase">
          <mxGeometry relative="1" as="geometry" />
        </mxCell>
        <mxCell id="conn_solar_firebase" value="Năng lượng&lt;br&gt;Mặt Trời" style="edgeStyle=none;endArrow=classic;html=1;strokeWidth=2;strokeColor=#FFC107;fontSize=10;fontColor=#FF8F00;" edge="1" parent="1" source="solar" target="firebase">
          <mxGeometry relative="1" as="geometry" />
        </mxCell>
        <mxCell id="conn_hydro_firebase" value="Năng lượng&lt;br&gt;Thủy Điện" style="edgeStyle=none;endArrow=classic;html=1;strokeWidth=2;strokeColor=#03A9F4;fontSize=10;fontColor=#0288D1;" edge="1" parent="1" source="hydro" target="firebase">
          <mxGeometry relative="1" as="geometry" />
        </mxCell>
        <mxCell id="conn_led_solar_sensor" value="Trạng thái Mặt trời" style="edgeStyle=none;endArrow=classic;html=1;strokeWidth=2;strokeColor=#FF7043;fontSize=10;fontColor=#E64A19;" edge="1" parent="1" source="led_solar" target="sensor">
          <mxGeometry relative="1" as="geometry" />
        </mxCell>
        <mxCell id="conn_sensor_esp32" value="Dữ liệu cảm biến" style="edgeStyle=none;endArrow=classic;html=1;strokeWidth=2;strokeColor=#FF7043;fontSize=10;fontColor=#E64A19;" edge="1" parent="1" source="sensor" target="esp32">
          <mxGeometry relative="1" as="geometry" />
        </mxCell>
        <mxCell id="conn_esp32_led_city" value="ĐIều khiển (ngược)" style="edgeStyle=none;endArrow=classic;html=1;strokeWidth=2;strokeColor=#673AB7;fontSize=10;fontColor=#5E35B1;" edge="1" parent="1" source="esp32" target="led_city">
          <mxGeometry relative="1" as="geometry" />
        </mxCell>
        <mxCell id="conn_esp32_firebase" value="WIFI" style="edgeStyle=none;endArrow=classic;html=1;strokeWidth=2;strokeColor=#FFA000;fontSize=10;fontColor=#FF6F00;dashed=1;" edge="1" parent="1" source="esp32" target="firebase">
          <mxGeometry relative="1" as="geometry" />
        </mxCell>
        <mxCell id="conn_firebase_web" value="APi&lt;br&gt;Realtime Database" style="edgeStyle=none;endArrow=classic;html=1;strokeWidth=2;strokeColor=#0277BD;fontSize=10;fontColor=#01579B;" edge="1" parent="1" source="firebase" target="web">
          <mxGeometry relative="1" as="geometry" />
        </mxCell>
        <mxCell id="conn_web_day_night" value="Tín hiệu điều khiển" style="edgeStyle=none;endArrow=classic;html=1;strokeWidth=2;strokeColor=#0277BD;fontSize=10;fontColor=#01579B;" edge="1" parent="1" source="web" target="day_night">
          <mxGeometry relative="1" as="geometry" />
        </mxCell>
        <mxCell id="conn_day_night_led_solar" value="điều khiển" style="edgeStyle=none;endArrow=classic;html=1;strokeWidth=2;strokeColor=#9E9E9E;fontSize=10;fontColor=#616161;" edge="1" parent="1" source="day_night" target="led_solar">
          <mxGeometry relative="1" as="geometry" />
        </mxCell>
        <mxCell id="nG6pSHDmTLSfgID_-Cg2-3" value="Thành Phố(Metro)" style="strokeWidth=2;html=1;shape=mxgraph.flowchart.database;whiteSpace=wrap;" vertex="1" parent="1">
          <mxGeometry x="275" y="10" width="120" height="60" as="geometry" />
        </mxCell>
      </root>
    </mxGraphModel>
  </diagram>
</mxfile>
